<?xml version="1.0" standalone="no"?>
<svg viewBox="0 0 200 200" xmlns="http://www.w3.org/2000/svg">
  <path fill="#d7def7" d="M44.5,-70.2C58.4,-60.2,71.1,-49.2,77.4,-35.4C83.7,-21.5,83.6,-4.8,81.7,12.1C79.8,28.9,76,45.8,66,57C56,68.3,39.7,73.9,23.1,78.7C6.6,83.5,-10.1,87.4,-24.9,83.6C-39.8,79.9,-52.8,68.4,-62.9,55.3C-73.1,42.2,-80.6,27.4,-83.2,11.7C-85.9,-4,-83.8,-20.7,-77.5,-35.9C-71.3,-51.1,-61,-64.9,-47.4,-75C-33.7,-85.1,-16.9,-91.5,-0.8,-90.2C15.2,-89,30.5,-80.1,44.5,-70.2Z" transform="translate(100 100)" />
</svg>
